<svg id="DarkBGLogo" xmlns="http://www.w3.org/2000/svg" viewBox="0 0 93.53 93.66"><defs><style>.cls-1{fill:#fff;}.cls-2{fill:#d71920;}.cls-3{fill:#004990;}</style></defs><path class="cls-1" d="M7.43,50.61A46.77,46.77,0,1,1,54.36,97.44,46.88,46.88,0,0,1,7.43,50.61Z" transform="translate(-7.43 -3.77)"/><path class="cls-2" d="M10.34,50.6A43.86,43.86,0,0,1,54.2,6.75h0A43.85,43.85,0,0,1,98.05,50.6h0A43.85,43.85,0,0,1,54.2,94.46h0A43.86,43.86,0,0,1,10.34,50.6Zm2.87,0a40.85,40.85,0,0,0,12,29h0a40.85,40.85,0,0,0,29,12h0a40.84,40.84,0,0,0,29-12h0a40.85,40.85,0,0,0,12-29h0a40.85,40.85,0,0,0-12-29h0a40.84,40.84,0,0,0-29-12h0a40.85,40.85,0,0,0-29,12h0a40.84,40.84,0,0,0-12,29Z" transform="translate(-7.43 -3.77)"/><path class="cls-3" d="M59.13,61.37a1.71,1.71,0,0,1,1.73-1.79c1.28,0,1.89,1,1.9,2.29l.69,0,.08-2h0l0,0a3.8,3.8,0,0,0-2.7-.91,2.91,2.91,0,0,0-3,2.91c0,3.81,5,2.18,4.91,4.76a1.88,1.88,0,0,1-1.91,2h0a2.57,2.57,0,0,1-2.42-2.8l-.77,0v0h0l0,.2.2,2.64a5.57,5.57,0,0,0,2.83.64c1.82,0,3.63-1,3.64-3.21C64.22,62.5,59.08,63.56,59.13,61.37ZM57.6,65.88ZM53,59.07a7.15,7.15,0,0,0-.93.1l-1.67,1.06.24.21A4.51,4.51,0,0,1,52,60.22c2.33,0,3.36,2.16,3.36,4.35s-1,4.18-3,4.19a2.08,2.08,0,0,1-2.15-2.27V53.18L49.74,53a11,11,0,0,1-2.8.82l0,.38a3.89,3.89,0,0,1,1.58.4l0,10.62v1.43c0,.85,0,1.7-.07,2.59l.38.2.77-.74a4.55,4.55,0,0,0,2.17.69c3.62,0,5.19-2.61,5.2-5.44C56.9,60.76,55.47,59.07,53,59.07ZM41.49,55.34l0-.53-4.86,0,0,.53,1.9.5-.29.81-3.18,9c-.34-1-2.95-8.89-3.13-9.56l.25-.38,1.58-.23,0-.58-5.26,0v0h0v.53l1.44.33.26.48c-.18.67-2.9,8.4-3.27,9.44l-3.14-9.8.09,0,1.53-.38.07-.57h-.23l-5.23,0-.05.53,1.86.47,4.32,13.61.66,0,3.92-10.83,3.65,10.76.7,0,4.76-13.64ZM25.43,54.9h0v0Zm-1.69,1h0l.13.4Zm13-1Zm1.83,1-.12,0,.12,0ZM70.58,67.09l0,.06c-.46.45-1.15,1.15-1.71,1.15-1.07,0-1.49-.76-1.49-2.1V60.68h.07l2.84,0,.05-1-3,0,0-2.54-.51,0a6,6,0,0,1-2.64,3.08l0,.5h0v0h1.42l0,6.12a2.31,2.31,0,0,0,2.34,2.6h.13a4,4,0,0,0,2.64-1.63l-.09-.64ZM65.34,49.64h0a5,5,0,0,0,3.06-1.19l0,1.21h.08c.37,0,2.28-.47,3.14-.63h.06l-.29-.46L70,48.4v-6c0-1.73-.75-2.51-2-2.51h-.18a1,1,0,0,0-.51.1l-2.19,1.31c-.22.14-1,.57-1,1L64,43.36l.15.12,1.15-.23c.14,0,.34,0,.34-.26v0c0-.19,0-.37,0-.54,0-.77.19-1.33,1.56-1.53h.15c.69,0,1.1.73,1.11,2.14v1.44c-.94.29-2,.69-3.07,1.06-.83.27-2.12.67-2.12,2.32A2.08,2.08,0,0,0,65.34,49.64Zm3.1,0h0l0-.29ZM68.51,45h0l-.51.16Zm0,0v.64l0,2.15a5.23,5.23,0,0,1-2.06.84c-.72,0-1.48-.52-1.48-1.19C64.92,46.13,66.34,45.76,68.51,45Zm-7.9-7.43a.89.89,0,0,0,.89-.87.88.88,0,1,0-1.75,0A.89.89,0,0,0,60.61,37.58ZM60,48.78l-1.79.29,0,.49,5.11,0v0h0v-.45l-1.78-.37,0-8.57L61.16,40a11.23,11.23,0,0,1-2.78.78l0,.48a4.25,4.25,0,0,1,1.64.39Zm-1.78.73Zm.2-8.3Zm-12.55,7.5-1.7.29,0,.56,5,0,0-.56-1.74-.37,0-4.79c0-.33.9-2.55,1.94-2.55a1.54,1.54,0,0,1,.76.32l.52.05.38-1.31a2.82,2.82,0,0,0-1.53-.34c-1,0-1.35,1.2-1.76,2l-.26.42V40.17L47.06,40v0l0,0a11,11,0,0,1-2.81.78l0,.48a4.49,4.49,0,0,1,1.67.39Zm3.27.84h0ZM23.59,49l-1.8-.37,1-10.79.09-.27L27.7,49.21l.26,0,4.68-11.51.13.24.92,10.74L31.78,49l0,.57,5.51,0,0-.57-1.67-.37-1.2-11.92,1.88-.29v0h0l0-.48-4.09,0-4.09,9.94L24,35.91l-4.16,0-.07.52,2,.37L20.65,48.7,19.07,49l0,.57,4.51,0Zm8.19.48Zm5.43,0h0Zm-13.71,0h0Zm63.06-6.47a2.77,2.77,0,0,0-3-3.1h0a2.07,2.07,0,0,0-1.22.53l-1.45,1.24A3.11,3.11,0,0,0,78.15,40a2.08,2.08,0,0,0-1.64.57l-1.38.9V40.17L74.68,40a10.9,10.9,0,0,1-2.72.78l0,.37a4.28,4.28,0,0,1,1.6.39v7.15L72,49l0,.5,4.67,0,0-.46-1.58-.42,0-6.4a4.19,4.19,0,0,1,2.29-1.16c1.75,0,1.8,1.78,1.8,3.34v4.26L77.71,49l0,.46,4.67,0,0-.46-1.58-.42,0-6.42a4.36,4.36,0,0,1,2.4-1c1.58,0,1.68,1.33,1.69,2.74v4.73L83.43,49l0,.46,4.6,0,0-.46-1.5-.42Zm-14.6-2h0v0Zm0,8.33Zm4.59,0Zm5.72,0Zm5.64,0Zm-47.42.33a5.26,5.26,0,0,0,1.8-.22l2.28-2.37L44,47.16a3.5,3.5,0,0,1-2.51,1.43H41.3c-3-.18-3.38-2.42-3.38-5H38l5.16,0c.57,0,.8-.07.8-.82,0-1.67-1.43-2.83-3.41-2.83-2.36,0-4.24,1.76-4.25,4.88S38.16,49.8,40.53,49.81Zm-.29-9.22c1.43,0,2,1,2,2.34a1.85,1.85,0,0,1,0,.23l-4.32,0A2.53,2.53,0,0,1,40.24,40.59Zm18-.2a2.8,2.8,0,0,0-1.53-.34c-1,0-1.34,1.2-1.76,2l-.26.42V40.17L54.21,40v0l0,0a11.1,11.1,0,0,1-2.81.78l0,.48a4.4,4.4,0,0,1,1.67.39l0,7.07L51.27,49l0,.55h.17l4.88.05,0-.56-1.74-.37,0-4.79c0-.33.89-2.55,1.94-2.55a1.54,1.54,0,0,1,.76.32l.52.05Zm24.4,20.72-.28.45V59.14L81.85,59v0l0,0a11.67,11.67,0,0,1-2.95.81l0,.51a4.67,4.67,0,0,1,1.76.4l0,7.44-1.8.3,0,.59,5.3,0,0-.59-1.82-.38,0-5c0-.35.95-2.68,2-2.68a1.61,1.61,0,0,1,.8.34l.54,0,.39-1.38a3,3,0,0,0-1.6-.35C83.37,59,83.06,60.28,82.62,61.11ZM78.78,69ZM84,69h0Zm-39.84-.88H44c-3.14-.19-3.57-2.56-3.58-5.26l5.52,0c.6,0,.85-.08.85-.87,0-1.76-1.51-3-3.61-3-2.48,0-4.47,1.86-4.48,5.15s2,5.21,4.48,5.22a5.64,5.64,0,0,0,1.9-.23l2.41-2.51-.67,0A3.71,3.71,0,0,1,44.16,68.12Zm-1.29-8.45c1.51,0,2.16,1.08,2.16,2.48v.24l-4.57,0A2.68,2.68,0,0,1,42.87,59.67Zm36,6.88a3.69,3.69,0,0,1-2.65,1.5h-.16c-3.14-.19-3.58-2.56-3.58-5.26l5.52,0c.59,0,.84-.08.84-.86,0-1.76-1.51-3-3.6-3-2.49,0-4.48,1.85-4.48,5.15s2,5.21,4.48,5.21a5.74,5.74,0,0,0,1.9-.23l2.4-2.5ZM74.93,59.6c1.51,0,2.16,1.08,2.17,2.48,0,.08,0,.16,0,.24l-4.57,0A2.69,2.69,0,0,1,74.93,59.6ZM88,44.24v1.35h3.67V44.24Z" transform="translate(-7.43 -3.77)"/><path class="cls-1" d="M83.26,95.3a1.53,1.53,0,1,1,1.54,1.51A1.51,1.51,0,0,1,83.26,95.3Zm1.54,1.26a1.26,1.26,0,1,0-1.24-1.26A1.22,1.22,0,0,0,84.8,96.56Zm-.32-.39h-.27V94.43h.67c.41,0,.61.15.61.49a.44.44,0,0,1-.45.48l.5.77h-.3l-.46-.75h-.3Zm.31-1c.23,0,.43,0,.43-.28s-.2-.26-.38-.26h-.36v.54Z" transform="translate(-7.43 -3.77)"/></svg>