<svg id="LightBGLogo" xmlns="http://www.w3.org/2000/svg" viewBox="0 0 93.94 94.07"><defs><style>.cls-1{fill:#fff;}.cls-2{fill:#d71920;}.cls-3{fill:#004990;}</style></defs><path class="cls-1" d="M7.43,50.61A46.77,46.77,0,1,1,54.36,97.44,46.88,46.88,0,0,1,7.43,50.61Z" transform="translate(-7.23 -3.57)"/><path class="cls-2" d="M7.23,50.61a47.08,47.08,0,0,1,47.13-47h0A46.53,46.53,0,0,1,87.53,17.35h0a47.06,47.06,0,0,1,13.63,33.26h0A47.1,47.1,0,0,1,87.53,83.87h0A46.52,46.52,0,0,1,54.36,97.64h0a47.08,47.08,0,0,1-47.13-47Zm.4,0a46.43,46.43,0,0,0,13.69,33h0a46.63,46.63,0,0,0,33,13.65h0a46.39,46.39,0,0,0,46.4-46.62h0A46.39,46.39,0,0,0,54.36,4h0a46.67,46.67,0,0,0-33,13.65h0a46.44,46.44,0,0,0-13.69,33Z" transform="translate(-7.23 -3.57)"/><path class="cls-2" d="M10.34,50.61A43.86,43.86,0,0,1,54.2,6.75h0A43.85,43.85,0,0,1,98.05,50.61h0A43.85,43.85,0,0,1,54.2,94.46h0A43.86,43.86,0,0,1,10.34,50.61Zm2.87,0a40.84,40.84,0,0,0,12,29h0a40.9,40.9,0,0,0,29,12h0a40.89,40.89,0,0,0,29-12h0a40.85,40.85,0,0,0,12-29h0a40.85,40.85,0,0,0-12-29h0a40.84,40.84,0,0,0-29-12h0a40.85,40.85,0,0,0-29,12h0a40.85,40.85,0,0,0-12,29Z" transform="translate(-7.23 -3.57)"/><path class="cls-2" d="M84.4,92.41a2.3,2.3,0,1,1,2.3,2.27A2.26,2.26,0,0,1,84.4,92.41Zm2.3,1.9a1.89,1.89,0,1,0-1.85-1.9A1.84,1.84,0,0,0,86.7,94.31Zm-.48-.59h-.39V91.11h1c.62,0,.92.23.92.74a.67.67,0,0,1-.67.72l.74,1.15h-.44l-.69-1.13h-.46Zm.48-1.46c.33,0,.63,0,.63-.43s-.29-.38-.57-.38h-.54v.81Z" transform="translate(-7.23 -3.57)"/><path class="cls-3" d="M59.13,61.38a1.71,1.71,0,0,1,1.73-1.8c1.28,0,1.89,1,1.9,2.29l.69,0,.08-2h0l0,0a3.8,3.8,0,0,0-2.7-.91,2.91,2.91,0,0,0-3,2.92c0,3.8,5,2.17,4.91,4.75a1.88,1.88,0,0,1-1.91,2h-.06c-1.46,0-2.37-1.23-2.41-2.8l-.77,0v0h0l0,.19.2,2.64a5.57,5.57,0,0,0,2.83.64c1.82,0,3.63-1,3.63-3.21C64.21,62.5,59.08,63.56,59.13,61.38ZM57.6,65.89h0ZM53,59.07a7.15,7.15,0,0,0-.93.1l-1.67,1.06.24.21A4.51,4.51,0,0,1,52,60.22c2.33,0,3.36,2.16,3.36,4.35s-1,4.19-3,4.19a2.08,2.08,0,0,1-2.15-2.27V53.18L49.74,53a10.64,10.64,0,0,1-2.8.82l0,.38a3.8,3.8,0,0,1,1.57.4l0,10.62v1.43c0,.85,0,1.7-.07,2.59l.38.2.76-.74a4.51,4.51,0,0,0,2.18.69c3.62,0,5.19-2.61,5.2-5.44C56.9,60.76,55.47,59.07,53,59.07ZM41.49,55.34l0-.53-4.86,0,0,.53,1.9.51-.29.8-3.18,9c-.34-1-2.95-8.89-3.13-9.56l.25-.38,1.58-.23,0-.57-5.26,0v0h0v.53l1.44.33.26.48c-.18.67-2.9,8.41-3.27,9.44l-3.14-9.8.09,0,1.53-.38.07-.57h-.23l-5.23,0-.05.53,1.86.47,4.32,13.61.66,0,3.92-10.83,3.65,10.77.7,0,4.76-13.64ZM25.43,54.9h0v0Zm-1.69,1h0l.13.4Zm13-1h0Zm1.83,1-.12,0,.12,0ZM70.58,67.1l0,.05c-.46.45-1.15,1.15-1.71,1.15-1.07,0-1.49-.76-1.49-2.1V60.68h.07l2.84,0,.05-1-3,0,0-2.54-.51,0a6.07,6.07,0,0,1-2.64,3.07l0,.51h0v0h1.42l0,6.12a2.32,2.32,0,0,0,2.34,2.61h.13a3.94,3.94,0,0,0,2.64-1.63l-.1-.64Zm16-24a2.78,2.78,0,0,0-3-3.11h0a2,2,0,0,0-1.21.54l-1.45,1.23A3.11,3.11,0,0,0,78.15,40a2.12,2.12,0,0,0-1.64.57l-1.38.9V40.17L74.68,40a10.49,10.49,0,0,1-2.72.78l0,.38a4.1,4.1,0,0,1,1.6.39v7.15L72,49l0,.51,4.67,0,0-.46-1.58-.42,0-6.41a4.08,4.08,0,0,1,2.29-1.15c1.75,0,1.8,1.77,1.8,3.33v4.27L77.71,49l0,.46,4.67,0,0-.46-1.58-.42,0-6.43a4.42,4.42,0,0,1,2.41-1c1.58,0,1.68,1.33,1.69,2.74v4.74L83.43,49l0,.46,4.6,0,0-.46-1.5-.42ZM72,41.11Zm0,8.33Zm4.59.05Zm5.71,0Zm5.65,0ZM60.61,37.58a.89.89,0,0,0,.89-.87.94.94,0,0,0-.89-1,1,1,0,0,0-.87,1A.9.9,0,0,0,60.61,37.58Zm4.73,12.06h0a4.91,4.91,0,0,0,3.06-1.19l0,1.21h.08c.37,0,2.28-.47,3.14-.63h.06l-.3-.46L70,48.4v-6c0-1.73-.75-2.51-2-2.51h-.18a1,1,0,0,0-.51.1l-2.19,1.31c-.22.14-1,.57-1,1L64,43.37l.15.11,1.15-.23c.14,0,.34,0,.34-.26v0c0-.19,0-.37,0-.54,0-.76.19-1.33,1.56-1.53h.15c.69,0,1.1.73,1.1,2.14v1.44c-.93.29-2,.7-3.06,1.06-.83.27-2.12.67-2.12,2.32A2.08,2.08,0,0,0,65.34,49.64Zm3.1,0h0l0-.29ZM68.51,45h0l-.51.16Zm0,0v.65l0,2.14a5.23,5.23,0,0,1-2.06.84c-.72,0-1.48-.52-1.48-1.19C64.92,46.13,66.34,45.76,68.51,45ZM60,48.78l-1.79.29,0,.49,5.11,0v0h0v-.45l-1.78-.37,0-8.57L61.16,40a10.93,10.93,0,0,1-2.78.78l0,.48a4.29,4.29,0,0,1,1.64.39Zm-1.78.73Zm.2-8.3ZM23.59,49l-1.8-.38,1-10.79.09-.27L27.7,49.21l.26,0,4.68-11.51.13.24.92,10.75L31.77,49l0,.57,5.51,0,0-.56-1.67-.38-1.2-11.92,1.88-.29v0h0l0-.48-4.09,0-4.09,10L24,35.92l-4.16,0-.07.52,2,.37L20.65,48.7,19.07,49l0,.57,4.52,0Zm8.19.47Zm5.43.05Zm-13.71,0h0Zm17,.25a5.26,5.26,0,0,0,1.8-.22l2.28-2.37L44,47.16a3.5,3.5,0,0,1-2.51,1.43H41.3c-3-.18-3.38-2.42-3.38-5H38l5.16,0c.57,0,.8-.07.8-.82,0-1.66-1.43-2.83-3.41-2.83-2.36,0-4.24,1.76-4.25,4.88S38.16,49.81,40.53,49.81Zm-.29-9.22c1.43,0,2,1,2,2.34a1.85,1.85,0,0,1,0,.23l-4.32,0A2.54,2.54,0,0,1,40.24,40.59Zm5.59,8.12-1.7.29,0,.56,5,0,0-.56-1.74-.37,0-4.79c0-.33.9-2.54,1.94-2.55a1.47,1.47,0,0,1,.76.33l.52.05.38-1.32a2.82,2.82,0,0,0-1.53-.34c-1,0-1.35,1.2-1.76,2l-.26.42V40.17L47.06,40v0l0,0a10.6,10.6,0,0,1-2.81.78l0,.48a4.49,4.49,0,0,1,1.67.39Zm3.27.85Zm9.12-9.17a2.8,2.8,0,0,0-1.53-.34c-1,0-1.34,1.2-1.76,2l-.26.42V40.17L54.21,40v0l0,0a10.7,10.7,0,0,1-2.81.78l0,.48a4.59,4.59,0,0,1,1.67.39l0,7.07L51.27,49l0,.56h.17l4.88,0,0-.56-1.74-.37,0-4.79c0-.33.89-2.54,1.94-2.55a1.47,1.47,0,0,1,.76.33l.52.05Zm24.4,20.72-.28.45V59.14L81.85,59v0l0,0a11.26,11.26,0,0,1-2.95.81l0,.51a4.5,4.5,0,0,1,1.76.41l0,7.43-1.8.31,0,.58,5.3,0,0-.58-1.82-.39,0-5c0-.35.94-2.68,2-2.68a1.61,1.61,0,0,1,.8.34l.54,0,.39-1.38a3,3,0,0,0-1.6-.35C83.37,59,83.06,60.28,82.62,61.11ZM78.78,69ZM84,69Zm-39.84-.89H44c-3.14-.19-3.57-2.56-3.58-5.26l5.52,0c.6,0,.84-.08.84-.87,0-1.75-1.5-3-3.6-3-2.48,0-4.47,1.86-4.48,5.16s2,5.21,4.48,5.21a5.64,5.64,0,0,0,1.9-.23l2.41-2.5-.67-.06A3.71,3.71,0,0,1,44.16,68.12Zm-1.29-8.45c1.51,0,2.16,1.08,2.16,2.48v.24l-4.57,0A2.68,2.68,0,0,1,42.87,59.67Zm36,6.88a3.7,3.7,0,0,1-2.65,1.51h-.16c-3.14-.19-3.58-2.56-3.58-5.26l5.52,0c.59,0,.84-.07.84-.86,0-1.76-1.51-3-3.6-3-2.49,0-4.48,1.86-4.48,5.15s2,5.21,4.48,5.21a5.74,5.74,0,0,0,1.9-.23l2.4-2.5ZM74.93,59.6c1.51,0,2.16,1.08,2.17,2.48,0,.08,0,.16,0,.24l-4.57,0A2.69,2.69,0,0,1,74.93,59.6ZM88,44.24v1.35h3.67V44.24Z" transform="translate(-7.23 -3.57)"/></svg>