<?xml version="1.0" standalone="no"?>
<!DOCTYPE svg PUBLIC "-//W3C//DTD SVG 20010904//EN"
 "http://www.w3.org/TR/2001/REC-SVG-20010904/DTD/svg10.dtd">
<svg version="1.0" xmlns="http://www.w3.org/2000/svg"
 width="192.000000pt" height="192.000000pt" viewBox="0 0 192.000000 192.000000"
 preserveAspectRatio="xMidYMid meet">
<metadata>
Created by potrace 1.11, written by Peter Selinger 2001-2013
</metadata>
<g transform="translate(0.000000,192.000000) scale(0.100000,-0.100000)"
fill="#000000" stroke="none">
<path d="M812 1908 c-97 -13 -252 -69 -344 -124 -112 -66 -266 -220 -332 -332
-104 -175 -151 -394 -128 -596 14 -131 63 -279 128 -388 66 -112 220 -266 332
-332 175 -104 394 -151 596 -128 226 25 407 113 571 277 119 119 183 220 232
367 89 266 59 561 -83 800 -66 112 -220 266 -332 332 -187 111 -420 156 -640
124z m342 -379 c114 -44 210 -161 223 -270 l6 -49 -76 0 -76 0 -7 38 c-23 124
-102 181 -255 182 -74 0 -93 -4 -140 -27 -66 -34 -99 -85 -99 -154 0 -97 63
-148 273 -219 230 -78 304 -124 351 -223 91 -188 -16 -386 -235 -436 -65 -15
-217 -13 -282 4 -112 29 -205 91 -253 167 -20 32 -54 132 -54 160 0 4 35 8 79
8 l79 0 7 -37 c14 -77 50 -121 129 -159 98 -46 250 -40 329 12 73 48 99 169
52 241 -27 41 -100 79 -223 118 -220 70 -332 139 -384 238 -30 58 -31 173 -1
238 40 89 144 166 253 189 79 16 237 5 304 -21z"/>
</g>
</svg>
